<?xml version="1.0" encoding="UTF-8"?>
<svg xmlns="http://www.w3.org/2000/svg" width="46" height="46" viewBox="0 0 46 46">
  <g fill="none" fill-rule="evenodd">
    <path fill="#FFF" d="M23 45c12.15 0 22-9.85 22-22S35.15 1 23 1 1 10.85 1 23s9.85 22 22 22z"/>
    <path fill="#4285F4" d="M32.52 24.5c0-.83-.07-1.66-.2-2.45H23v4.64h5.36c-.23 1.23-.93 2.27-1.98 2.97v2.47h3.2c1.87-1.72 2.94-4.25 2.94-7.63z"/>
    <path fill="#34A853" d="M23 33c2.7 0 4.97-.9 6.63-2.44l-3.2-2.47c-.89.6-2.03.96-3.43.96-2.64 0-4.87-1.78-5.67-4.18h-3.3v2.6C16.13 30.98 19.31 33 23 33z"/>
    <path fill="#FBBC05" d="M17.33 24.87a6.13 6.13 0 0 1 0-3.74v-2.6h-3.3A10.01 10.01 0 0 0 13 23c0 1.64.39 3.2 1.03 4.47l3.3-2.6z"/>
    <path fill="#EA4335" d="M23 18.9c1.47 0 2.78.51 3.81 1.5l2.85-2.85C27.97 15.9 25.7 15 23 15c-3.69 0-6.87 2.02-8.67 4.97l3.3 2.6c.8-2.4 3.03-4.18 5.67-4.18z"/>
    <path d="M1 1h44v44H1z"/>
  </g>
</svg> 